<?xml version="1.0" encoding="utf-8"?>
<!-- Generator: Adobe Illustrator 18.0.0, SVG Export Plug-In . SVG Version: 6.00 Build 0)  -->
<!DOCTYPE svg PUBLIC "-//W3C//DTD SVG 1.1//EN" "http://www.w3.org/Graphics/SVG/1.1/DTD/svg11.dtd">
<svg version="1.1" id="Layer_2" xmlns="http://www.w3.org/2000/svg" xmlns:xlink="http://www.w3.org/1999/xlink" x="0px" y="0px"
	 viewBox="217.3 -1.3 525.5 560.5" enable-background="new 217.3 -1.3 525.5 560.5" xml:space="preserve">
<g>
	<g id="XMLID_1_">
		<g>
			<path fill="#FFFFFF" d="M742.5,384v140c0,19.4-15.7,35-35,35h-455c-19.3,0-35-15.7-35-35V384h70v105h385V384H742.5z"/>
			<path fill="#FFFFFF" d="M618.4,254.3c2.8,6.3,1.8,13.6-2.8,18.8L493.2,413c-3.3,3.8-8.1,6-13.2,6s-9.8-2.2-13.2-6L344.3,273
				c-4.5-5.2-5.6-12.5-2.8-18.8c2.8-6.2,9.1-10.3,15.9-10.3h70V16.5C427.5,6.8,435.3-1,445-1h70c9.7,0,17.5,7.8,17.5,17.5V244h70
				C609.4,244,615.6,248,618.4,254.3z"/>
		</g>
		<g>
		</g>
	</g>
</g>
</svg>
