<?xml version="1.0" encoding="utf-8"?>
<!-- Generator: Adobe Illustrator 18.0.0, SVG Export Plug-In . SVG Version: 6.00 Build 0)  -->
<!DOCTYPE svg PUBLIC "-//W3C//DTD SVG 1.1//EN" "http://www.w3.org/Graphics/SVG/1.1/DTD/svg11.dtd">
<svg version="1.1" id="Layer_1" xmlns="http://www.w3.org/2000/svg" xmlns:xlink="http://www.w3.org/1999/xlink" x="0px" y="0px"
	 viewBox="270.9 70.9 418.1 419.2" enable-background="new 270.9 70.9 418.1 419.2" xml:space="preserve">
<g>
	<g id="XMLID_1_">
		<g>
			<path d="M689.1,93.9v373.3c0,12.8-10.1,22.9-22.9,22.9H559.5V328h53.9l8-62.9h-62.4v-40.5c0-18.7,5.3-30.9,31.5-30.9H624v-56.5
				c-5.9-1.1-25.6-2.7-48.5-2.7c-48,0-81.1,29.3-81.1,83.2V264H440v62.9h53.9v161.6h-200c-12.8,0-22.9-10.1-22.9-22.9V93.9
				c0-12.8,10.1-22.9,22.9-22.9h372.3C678.9,70.9,689.1,81.1,689.1,93.9z"/>
		</g>
		<g>
		</g>
	</g>
</g>
</svg>
